<svg xmlns="http://www.w3.org/2000/svg" viewBox="0 0 64 64">
  <circle cx="32" cy="32" r="30" fill="#ffffff" stroke="#08060d" stroke-width="2"/>
  <polygon points="32,16 40,22 37,32 27,32 24,22" fill="#08060d"/>
  <polygon points="32,16 40,22 48,18 46,10 36,8" fill="none" stroke="#08060d" stroke-width="1.5" stroke-linejoin="round"/>
  <polygon points="32,16 24,22 16,18 18,10 28,8" fill="none" stroke="#08060d" stroke-width="1.5" stroke-linejoin="round"/>
  <polygon points="40,22 37,32 44,40 52,34 48,18" fill="none" stroke="#08060d" stroke-width="1.5" stroke-linejoin="round"/>
  <polygon points="24,22 27,32 20,40 12,34 16,18" fill="none" stroke="#08060d" stroke-width="1.5" stroke-linejoin="round"/>
  <polygon points="27,32 37,32 40,44 32,52 24,44" fill="none" stroke="#08060d" stroke-width="1.5" stroke-linejoin="round"/>
</svg>
